<svg width="64" height="64" viewBox="0 0 64 64" fill="none" xmlns="http://www.w3.org/2000/svg">
  <defs>
    <linearGradient id="fg" x1="8" y1="8" x2="56" y2="56" gradientUnits="userSpaceOnUse">
      <stop stop-color="#6366F1"/>
      <stop offset="1" stop-color="#22D3EE"/>
    </linearGradient>
  </defs>
  <rect x="6" y="6" width="52" height="52" rx="16" fill="url(#fg)"/>
  <path d="M32 18c-7.7 0-14 6.3-14 14s6.3 14 14 14c5.4 0 10.1-3.1 12.4-7.7h-6.6c-1.5 1.6-3.7 2.6-6.1 2.6-4.6 0-8.4-3.8-8.4-8.4 0-4.6 3.8-8.4 8.4-8.4 2.4 0 4.6 1 6.1 2.6h6.6C42.1 21.1 37.4 18 32 18z" fill="white"/>
</svg>